<svg xmlns="http://www.w3.org/2000/svg" class="cwl-workflow wRatPv __plugin-port-drag __plugin-validate __plugin-selection __plugin-update" ct-click="" tabindex="-1" ct-drop-enabled="" ct-drop-zones="graph-editor">
            <rect x="0" y="0" width="100%" height="100%" class="pan-handle" transform="matrix(1,0,0,1,0,0)" style="fill:rgb(48, 48, 48); stroke:none; stroke-width:1px; "/>
            <g class="workflow" transform="matrix(0.862169 0 0 0.862169 116.014 292.474)">
            <g tabindex="-1" class="edge" data-source-port="mix" data-destination-port="mix" data-source-node="mix" data-source-connection="out/mix/mix" data-destination-connection="in/data_querry/mix" data-destination-node="data_querry">
                <path class="sub-edge outer" d="M 50.91839203446707 156.72906585925946 C 129.20919601723352 156.72906585925946 129.20919601723352 153.171875 207.5 153.171875" style="fill:none; stroke:rgb(48, 48, 48); stroke-width:7px; "/>
                <path class="sub-edge inner" d="M 50.91839203446707 156.72906585925946 C 129.20919601723352 156.72906585925946 129.20919601723352 153.171875 207.5 153.171875" style="fill:none; stroke:rgb(154, 154, 154); stroke-width:2px; "/>
            </g>
        
            <g tabindex="-1" class="edge" data-source-port="experimental_data" data-destination-port="displ_list" data-source-node="data_querry" data-source-connection="out/data_querry/experimental_data" data-destination-connection="in/calibration/displ_list" data-destination-node="calibration">
                <path class="sub-edge outer" d="M 291.9015083312988 170.59938430786133 C 392.81132122135693 170.59938430786133 392.81132122135693 22.585299567625185 493.72113411141504 22.585299567625185" style="fill:none; stroke:rgb(48, 48, 48); stroke-width:7px; "/>
                <path class="sub-edge inner" d="M 291.9015083312988 170.59938430786133 C 392.81132122135693 170.59938430786133 392.81132122135693 22.585299567625185 493.72113411141504 22.585299567625185" style="fill:none; stroke:rgb(154, 154, 154); stroke-width:2px; "/>
            </g>
        
            <g tabindex="-1" class="edge" data-source-port="experimental_data" data-destination-port="force_list" data-source-node="data_querry" data-source-connection="out/data_querry/experimental_data" data-destination-connection="in/calibration/force_list" data-destination-node="calibration">
                <path class="sub-edge outer" d="M 291.9015083312988 170.59938430786133 C 384.7747611627632 170.59938430786133 384.7747611627632 3.430098609373232 477.64801399422754 3.430098609373232" style="fill:none; stroke:rgb(48, 48, 48); stroke-width:7px; "/>
                <path class="sub-edge inner" d="M 291.9015083312988 170.59938430786133 C 384.7747611627632 170.59938430786133 384.7747611627632 3.430098609373232 477.64801399422754 3.430098609373232" style="fill:none; stroke:rgb(154, 154, 154); stroke-width:2px; "/>
            </g>
        
            <g tabindex="-1" class="edge" data-source-port="forward_model_definition" data-destination-port="forward_model_definition" data-source-node="forward_model_definition" data-source-connection="out/forward_model_definition/forward_model_definition" data-destination-connection="in/calibration/forward_model_definition" data-destination-node="calibration">
                <path class="sub-edge outer" d="M 47.4387940258503 -3.2588648013593646 C 258.267239001494 -3.2588648013593646 258.267239001494 -20.067233009889463 469.0956839771377 -20.067233009889463" style="fill:none; stroke:rgb(48, 48, 48); stroke-width:7px; "/>
                <path class="sub-edge inner" d="M 47.4387940258503 -3.2588648013593646 C 258.267239001494 -3.2588648013593646 258.267239001494 -20.067233009889463 469.0956839771377 -20.067233009889463" style="fill:none; stroke:rgb(154, 154, 154); stroke-width:2px; "/>
            </g>
        
            <g tabindex="-1" class="edge" data-source-port="meta_data" data-destination-port="meta_data" data-source-node="data_querry" data-source-connection="out/data_querry/meta_data" data-destination-connection="in/calibration/meta_data" data-destination-node="calibration">
                <path class="sub-edge outer" d="M 291.9015083312988 135.74436569213867 C 380.49859615421826 135.74436569213867 380.49859615421826 -45.07256977136407 469.0956839771377 -45.07256977136407" style="fill:none; stroke:rgb(48, 48, 48); stroke-width:7px; "/>
                <path class="sub-edge inner" d="M 291.9015083312988 135.74436569213867 C 380.49859615421826 135.74436569213867 380.49859615421826 -45.07256977136407 469.0956839771377 -45.07256977136407" style="fill:none; stroke:rgb(154, 154, 154); stroke-width:2px; "/>
            </g>
        
            <g tabindex="-1" class="edge" data-source-port="probeye_module" data-destination-port="probeye_module" data-source-node="probeye_module" data-source-connection="out/probeye_module/probeye_module" data-destination-connection="in/calibration/probeye_module" data-destination-node="calibration">
                <path class="sub-edge outer" d="M 50.91839203446707 -151.86886864051297 C 264.2832030143473 -151.86886864051297 264.2832030143473 -68.56990139062677 477.64801399422754 -68.56990139062677" style="fill:none; stroke:rgb(48, 48, 48); stroke-width:7px; "/>
                <path class="sub-edge inner" d="M 50.91839203446707 -151.86886864051297 C 264.2832030143473 -151.86886864051297 264.2832030143473 -68.56990139062677 477.64801399422754 -68.56990139062677" style="fill:none; stroke:rgb(154, 154, 154); stroke-width:2px; "/>
            </g>
        
            <g tabindex="-1" class="edge" data-source-port="sim_force_list" data-destination-port="sim_force_list" data-source-node="forward_model" data-source-connection="out/forward_model/sim_force_list" data-destination-connection="in/calibration/sim_force_list" data-destination-node="calibration">
                <path class="sub-edge outer" d="M 677.7000118442639 139.69975673296713 C 769.6894507106883 139.69975673296713 401.7316952449906 -87.72510234887872 493.72113411141504 -87.72510234887872" style="fill:none; stroke:rgb(48, 48, 48); stroke-width:7px; "/>
                <path class="sub-edge inner" d="M 677.7000118442639 139.69975673296713 C 769.6894507106883 139.69975673296713 401.7316952449906 -87.72510234887872 493.72113411141504 -87.72510234887872" style="fill:none; stroke:rgb(154, 154, 154); stroke-width:2px; "/>
            </g>
        
            <g tabindex="-1" class="edge" data-source-port="displ_list" data-destination-port="displ_list" data-source-node="calibration" data-source-connection="out/calibration/displ_list" data-destination-connection="in/forward_model/displ_list" data-destination-node="forward_model">
                <path class="sub-edge outer" d="M 598.9807891101943 8.72760303442206 C 604.9277878505814 8.72760303442206 581.1397928890331 211.7767640266683 587.0867916294202 211.7767640266683" style="fill:none; stroke:rgb(48, 48, 48); stroke-width:7px; "/>
                <path class="sub-edge inner" d="M 598.9807891101943 8.72760303442206 C 604.9277878505814 8.72760303442206 581.1397928890331 211.7767640266683 587.0867916294202 211.7767640266683" style="fill:none; stroke:rgb(154, 154, 154); stroke-width:2px; "/>
            </g>
        
            <g tabindex="-1" class="edge" data-source-port="force" data-destination-port="force" data-source-node="cylinder_simulation" data-source-connection="out/cylinder_simulation/force" data-destination-connection="in/forward_model/force" data-destination-node="forward_model">
                <path class="sub-edge outer" d="M 854.8374966174124 342.10762151987825 C 995.3002247522777 342.10762151987825 433.44931221281666 186.99866019823813 573.9120403476819 186.99866019823813" style="fill:none; stroke:rgb(48, 48, 48); stroke-width:7px; "/>
                <path class="sub-edge inner" d="M 854.8374966174124 342.10762151987825 C 995.3002247522777 342.10762151987825 433.44931221281666 186.99866019823813 573.9120403476819 186.99866019823813" style="fill:none; stroke:rgb(154, 154, 154); stroke-width:2px; "/>
            </g>
        
            <g tabindex="-1" class="edge" data-source-port="model_parameters" data-destination-port="model_parameters" data-source-node="calibration" data-source-connection="out/calibration/model_parameters" data-destination-connection="in/forward_model/model_parameters" data-destination-node="forward_model">
                <path class="sub-edge outer" d="M 612.0018424244033 -32.56990139062677 C 631.046743462764 -32.56990139062677 554.8671393093211 158.93571960070395 573.9120403476819 158.93571960070395" style="fill:none; stroke:rgb(48, 48, 48); stroke-width:7px; "/>
                <path class="sub-edge inner" d="M 612.0018424244033 -32.56990139062677 C 631.046743462764 -32.56990139062677 554.8671393093211 158.93571960070395 573.9120403476819 158.93571960070395" style="fill:none; stroke:rgb(154, 154, 154); stroke-width:2px; "/>
            </g>
        
            <g tabindex="-1" class="edge" data-source-port="simulation_module" data-destination-port="simulation_module" data-source-node="simulation_module" data-source-connection="out/simulation_module/simulation_module" data-destination-connection="in/forward_model/simulation_module" data-destination-node="forward_model">
                <path class="sub-edge outer" d="M 382.6400688559322 374.63671892773857 C 484.8634302426762 374.63671892773857 484.8634302426762 134.15761577227377 587.0867916294202 134.15761577227377" style="fill:none; stroke:rgb(48, 48, 48); stroke-width:7px; "/>
                <path class="sub-edge inner" d="M 382.6400688559322 374.63671892773857 C 484.8634302426762 374.63671892773857 484.8634302426762 134.15761577227377 587.0867916294202 134.15761577227377" style="fill:none; stroke:rgb(154, 154, 154); stroke-width:2px; "/>
            </g>
        
            <g tabindex="-1" class="edge" data-source-port="model_parameters" data-destination-port="height" data-source-node="forward_model" data-source-connection="out/forward_model/model_parameters" data-destination-connection="in/cylinder_simulation/height" data-destination-node="cylinder_simulation">
                <path class="sub-edge outer" d="M 688.1891933628186 172.96718989947104 C 709.1713211406282 172.96718989947104 709.1713211406282 367.85280164988313 730.1534489184378 367.85280164988313" style="fill:none; stroke:rgb(48, 48, 48); stroke-width:7px; "/>
                <path class="sub-edge inner" d="M 688.1891933628186 172.96718989947104 C 709.1713211406282 172.96718989947104 709.1713211406282 367.85280164988313 730.1534489184378 367.85280164988313" style="fill:none; stroke:rgb(154, 154, 154); stroke-width:2px; "/>
            </g>
        
            <g tabindex="-1" class="edge" data-source-port="model_parameters" data-destination-port="radius" data-source-node="forward_model" data-source-connection="out/forward_model/model_parameters" data-destination-connection="in/cylinder_simulation/radius" data-destination-node="cylinder_simulation">
                <path class="sub-edge outer" d="M 688.1891933628186 172.96718989947104 C 709.1713211406282 172.96718989947104 709.1713211406282 316.36244138987337 730.1534489184378 316.36244138987337" style="fill:none; stroke:rgb(48, 48, 48); stroke-width:7px; "/>
                <path class="sub-edge inner" d="M 688.1891933628186 172.96718989947104 C 709.1713211406282 172.96718989947104 709.1713211406282 316.36244138987337 730.1534489184378 316.36244138987337" style="fill:none; stroke:rgb(154, 154, 154); stroke-width:2px; "/>
            </g>
        
            <g tabindex="-1" class="edge" data-source-port="displacement" data-destination-port="displacement" data-source-node="forward_model" data-source-connection="out/forward_model/displacement" data-destination-connection="in/cylinder_simulation/displacement" data-destination-node="cylinder_simulation">
                <path class="sub-edge outer" d="M 677.7000118442639 206.23462306597494 C 711.4659035075715 206.23462306597494 711.4659035075715 389.3869107654837 745.2317951708792 389.3869107654837" style="fill:none; stroke:rgb(48, 48, 48); stroke-width:7px; "/>
                <path class="sub-edge inner" d="M 677.7000118442639 206.23462306597494 C 711.4659035075715 206.23462306597494 711.4659035075715 389.3869107654837 745.2317951708792 389.3869107654837" style="fill:none; stroke:rgb(154, 154, 154); stroke-width:2px; "/>
            </g>
        
            <g tabindex="-1" class="edge" data-source-port="model_parameters" data-destination-port="youngs_modulus" data-source-node="forward_model" data-source-connection="out/forward_model/model_parameters" data-destination-connection="in/cylinder_simulation/youngs_modulus" data-destination-node="cylinder_simulation">
                <path class="sub-edge outer" d="M 688.1891933628186 172.96718989947104 C 716.7104942668489 172.96718989947104 716.7104942668489 294.8283322742728 745.2317951708792 294.8283322742728" style="fill:none; stroke:rgb(48, 48, 48); stroke-width:7px; "/>
                <path class="sub-edge inner" d="M 688.1891933628186 172.96718989947104 C 716.7104942668489 172.96718989947104 716.7104942668489 294.8283322742728 745.2317951708792 294.8283322742728" style="fill:none; stroke:rgb(154, 154, 154); stroke-width:2px; "/>
            </g>
        
            <g tabindex="-1" class="edge" data-source-port="model_parameters" data-destination-port="poissions_ratio" data-source-node="forward_model" data-source-connection="out/forward_model/model_parameters" data-destination-connection="in/cylinder_simulation/poissions_ratio" data-destination-node="cylinder_simulation">
                <path class="sub-edge outer" d="M 688.1891933628186 172.96718989947104 C 706.5133449901155 172.96718989947104 706.5133449901155 342.10762151987825 724.8374966174124 342.10762151987825" style="fill:none; stroke:rgb(48, 48, 48); stroke-width:7px; "/>
                <path class="sub-edge inner" d="M 688.1891933628186 172.96718989947104 C 706.5133449901155 172.96718989947104 706.5133449901155 342.10762151987825 724.8374966174124 342.10762151987825" style="fill:none; stroke:rgb(154, 154, 154); stroke-width:2px; "/>
            </g>
        
            <g tabindex="-1" class="edge" data-source-port="optimal_model_parameters" data-destination-port="optimal_model_parameters" data-source-node="calibration" data-source-connection="out/calibration/optimal_model_parameters" data-destination-connection="in/optimal_model_parameters/optimal_model_parameters" data-destination-node="optimal_model_parameters">
                <path class="sub-edge outer" d="M 598.9807891101943 -73.8674058156756 C 770.644824668781 -73.8674058156756 770.644824668781 -69.64078675548774 942.3088602273676 -69.64078675548774" style="fill:none; stroke:rgb(48, 48, 48); stroke-width:7px; "/>
                <path class="sub-edge inner" d="M 598.9807891101943 -73.8674058156756 C 770.644824668781 -73.8674058156756 770.644824668781 -69.64078675548774 942.3088602273676 -69.64078675548774" style="fill:none; stroke:rgb(154, 154, 154); stroke-width:2px; "/>
            </g>
        
            
        
            
        
            
        
            
        
            
        
            
        
            
        
            
        
            
        
            
        
            
        
            
        
            
        
            
        
            
        
            
        
            
        
            
        
            
        
            
        
            
        
            
        
            
        
            
        
            
        
            
        
            
        
            
        
            
        
            
        
            
        
            
        
            
        
            
        
            
        
            
        
            
        
            
        
            
        
            
        
            
        
            
        
            
        <g tabindex="-1" class="node input type-undefined " data-connection-id="out/simulation_module/simulation_module" transform="translate(345.64 374.637)" data-id="simulation_module">
               
                <g class="core" transform="matrix(1, 0, 0, 1, 0, 0)">
                    <circle cx="0" cy="0" r="37" class="outer" style="fill:rgb(48, 48, 48); stroke:rgb(154, 154, 154); stroke-width:2px; "/>
                    <circle cx="0" cy="0" r="27.75" class="inner" style="fill:rgb(195, 195, 195); stroke:none; stroke-width:1px; "/>
                    
                    <svg class="node-icon" xmlns="http://www.w3.org/2000/svg" viewBox="0 0 499 365" x="-11" y="-10" width="20" height="20"><title>type_input</title><g id="input"><path d="M316.5,68a181.72,181.72,0,0,0-114.12,40.09L238,143.72a132.5,132.5,0,1,1,1.16,214.39L203.48,393.8A182.5,182.5,0,1,0,316.5,68Z" transform="translate(0 -68)" style="fill:rgb(48, 48, 48); stroke:rgb(48, 48, 48); stroke-width:3px; "/><g id="Layer_22" data-name="Layer 22"><g id="Layer_9_copy_4" data-name="Layer 9 copy 4"><polygon points="290.36 182 176.68 295.68 141.32 260.32 194.64 207 0 207 0 157 194.64 157 142.32 104.68 177.68 69.32 290.36 182" style="stroke:rgb(48, 48, 48); fill:rgb(48, 48, 48); "/></g></g></g></svg>
                </g>
                
                <text transform="matrix(1.07993 0 0 1.07993 0 67)" class="title label" style="fill:rgb(255, 255, 255); font-size:13px; text-anchor:middle; font-family:sans-serif; ">simulation_module</text>
                
                
                
            <g class="port output-port" transform="matrix(1, 0, 0, 1, 37, 0)" data-connection-id="out/simulation_module/simulation_module" data-port-id="simulation_module">
                <g class="io-port">
                    <circle cx="0" cy="0" r="7" class="port-handle" style="fill:rgb(195, 195, 195); stroke:none; stroke-width:1px; "/>
                </g>
                
            </g>
            
        
            </g><g tabindex="-1" class="node step  " data-connection-id="data_querry" transform="matrix(1, 0, 0, 1, 251.5, 153.171875)" data-id="data_querry">
               
                <g class="core" transform="matrix(1, 0, 0, 1, 0, 0)">
                    <circle cx="0" cy="0" r="44" class="outer" style="fill:rgb(48, 48, 48); stroke:rgb(154, 154, 154); stroke-width:2px; "/>
                    <circle cx="0" cy="0" r="33" class="inner" style="fill:rgb(17, 167, 167); stroke:none; stroke-width:1px; "/>
                    
                    <svg class="node-icon" xmlns="http://www.w3.org/2000/svg" viewBox="0 0 398.39 397.78" x="-10" y="-8" width="20" height="15"><title>tool2</title><polygon points="38.77 397.57 0 366 136.15 198.78 0 31.57 38.77 0 200.63 198.78 38.77 397.57" style="stroke:rgb(48, 48, 48); fill:rgb(48, 48, 48); "/><rect x="198.39" y="347.78" width="200" height="50" style="fill:rgb(48, 48, 48); stroke:rgb(48, 48, 48); stroke-width:3px; "/></svg>
                </g>
                
                <text transform="matrix(1.07993 0 0 1.07993 0 74)" class="title label" style="fill:rgb(255, 255, 255); font-size:13px; text-anchor:middle; font-family:sans-serif; ">data_querry</text>
                
                
            <g class="port input-port" transform="matrix(1, 0, 0, 1, -44, 5.3884459162483544e-15)" data-connection-id="in/data_querry/mix" data-port-id="mix">
                <g class="io-port">
                    <circle cx="0" cy="0" r="7" class="port-handle" style="fill:rgb(195, 195, 195); stroke:none; stroke-width:1px; "/>
                </g>
                
            </g>
            
        
                
            <g class="port output-port" transform="matrix(1, 0, 0, 1, 40.401508509347615, -17.427510154038423)" data-connection-id="out/data_querry/meta_data" data-port-id="meta_data">
                <g class="io-port">
                    <circle cx="0" cy="0" r="7" class="port-handle" style="fill:rgb(195, 195, 195); stroke:none; stroke-width:1px; "/>
                </g>
                
            </g>
            
        
            <g class="port output-port" transform="matrix(1, 0, 0, 1, 40.401508509347615, 17.427510154038423)" data-connection-id="out/data_querry/experimental_data" data-port-id="experimental_data">
                <g class="io-port">
                    <circle cx="0" cy="0" r="7" class="port-handle" style="fill:rgb(195, 195, 195); stroke:none; stroke-width:1px; "/>
                </g>
                
            </g>
            
        
            </g><g tabindex="-1" class="node step  " data-connection-id="calibration" transform="translate(540.002 -32.5699)" data-id="calibration">
               
                <g class="core" transform="matrix(1, 0, 0, 1, 0, 0)">
                    <circle cx="0" cy="0" r="72" class="outer" style="fill:rgb(48, 48, 48); stroke:rgb(154, 154, 154); stroke-width:2px; "/>
                    <circle cx="0" cy="0" r="54" class="inner" style="fill:rgb(17, 167, 167); stroke:none; stroke-width:1px; "/>
                    
                    <svg class="node-icon" xmlns="http://www.w3.org/2000/svg" viewBox="0 0 398.39 397.78" x="-10" y="-8" width="20" height="15"><title>tool2</title><polygon points="38.77 397.57 0 366 136.15 198.78 0 31.57 38.77 0 200.63 198.78 38.77 397.57" style="stroke:rgb(48, 48, 48); fill:rgb(48, 48, 48); "/><rect x="198.39" y="347.78" width="200" height="50" style="fill:rgb(48, 48, 48); stroke:rgb(48, 48, 48); stroke-width:3px; "/></svg>
                </g>
                
                <text transform="matrix(1.07993 0 0 1.07993 0 102)" class="title label" style="fill:rgb(255, 255, 255); font-size:13px; text-anchor:middle; font-family:sans-serif; ">calibration</text>
                
                
            <g class="port input-port" transform="matrix(1, 0, 0, 1, -46.280707897430844, -55.15519990456641)" data-connection-id="in/calibration/sim_force_list" data-port-id="sim_force_list">
                <g class="io-port">
                    <circle cx="0" cy="0" r="7" class="port-handle" style="fill:rgb(195, 195, 195); stroke:none; stroke-width:1px; "/>
                </g>
                
            </g>
            
        
            <g class="port input-port" transform="matrix(1, 0, 0, 1, -62.35382907247958, -36.00000000000001)" data-connection-id="in/calibration/probeye_module" data-port-id="probeye_module">
                <g class="io-port">
                    <circle cx="0" cy="0" r="7" class="port-handle" style="fill:rgb(195, 195, 195); stroke:none; stroke-width:1px; "/>
                </g>
                
            </g>
            
        
            <g class="port input-port" transform="matrix(1, 0, 0, 1, -70.90615821687898, -12.502668792018994)" data-connection-id="in/calibration/meta_data" data-port-id="meta_data">
                <g class="io-port">
                    <circle cx="0" cy="0" r="7" class="port-handle" style="fill:rgb(195, 195, 195); stroke:none; stroke-width:1px; "/>
                </g>
                
            </g>
            
        
            <g class="port input-port" transform="matrix(0.9999999999999999, 0, 0, 0.9999999999999999, -70.90615821687898, 12.50266879201898)" data-connection-id="in/calibration/forward_model_definition" data-port-id="forward_model_definition">
                <g class="io-port">
                    <circle cx="0" cy="0" r="7" class="port-handle" style="fill:rgb(195, 195, 195); stroke:none; stroke-width:1px; "/>
                </g>
                
            </g>
            
        
            <g class="port input-port" transform="matrix(1, 0, 0, 1, -62.353829072479584, 35.99999999999999)" data-connection-id="in/calibration/force_list" data-port-id="force_list">
                <g class="io-port">
                    <circle cx="0" cy="0" r="7" class="port-handle" style="fill:rgb(195, 195, 195); stroke:none; stroke-width:1px; "/>
                </g>
                
            </g>
            
        
            <g class="port input-port" transform="matrix(1, 0, 0, 1, -46.28070789743084, 55.155199904566416)" data-connection-id="in/calibration/displ_list" data-port-id="displ_list">
                <g class="io-port">
                    <circle cx="0" cy="0" r="7" class="port-handle" style="fill:rgb(195, 195, 195); stroke:none; stroke-width:1px; "/>
                </g>
                
            </g>
            
        
                
            <g class="port output-port" transform="matrix(0.9999999999999999, 0, 0, 0.9999999999999999, 58.97894718880741, -41.297503417275315)" data-connection-id="out/calibration/optimal_model_parameters" data-port-id="optimal_model_parameters">
                <g class="io-port">
                    <circle cx="0" cy="0" r="7" class="port-handle" style="fill:rgb(195, 195, 195); stroke:none; stroke-width:1px; "/>
                </g>
                
            </g>
            
        
            <g class="port output-port" transform="matrix(1, 0, 0, 1, 72, 0)" data-connection-id="out/calibration/model_parameters" data-port-id="model_parameters">
                <g class="io-port">
                    <circle cx="0" cy="0" r="7" class="port-handle" style="fill:rgb(195, 195, 195); stroke:none; stroke-width:1px; "/>
                </g>
                
            </g>
            
        
            <g class="port output-port" transform="matrix(0.9999999999999999, 0, 0, 0.9999999999999999, 58.97894718880741, 41.297503417275315)" data-connection-id="out/calibration/displ_list" data-port-id="displ_list">
                <g class="io-port">
                    <circle cx="0" cy="0" r="7" class="port-handle" style="fill:rgb(195, 195, 195); stroke:none; stroke-width:1px; "/>
                </g>
                
            </g>
            
        
            </g><g tabindex="-1" class="node output type-undefined " data-connection-id="in/optimal_model_parameters/optimal_model_parameters" transform="translate(979.309 -69.6408)" data-id="optimal_model_parameters">
               
                <g class="core" transform="matrix(1, 0, 0, 1, 0, 0)">
                    <circle cx="0" cy="0" r="37" class="outer" style="fill:rgb(48, 48, 48); stroke:rgb(154, 154, 154); stroke-width:2px; "/>
                    <circle cx="0" cy="0" r="27.75" class="inner" style="fill:rgb(195, 195, 195); stroke:none; stroke-width:1px; "/>
                    
                    <svg class="node-icon" xmlns="http://www.w3.org/2000/svg" viewBox="0 0 500.36 365" x="-9" y="-10" width="20" height="20"><title>type_output</title><g id="output"><path d="M291.95,325.23a134,134,0,0,1-15.76,19,132.5,132.5,0,1,1,0-187.38,133.9,133.9,0,0,1,16.16,19.55l35.81-35.81A182.5,182.5,0,1,0,327.73,361Z" transform="translate(0 -68)" style="fill:rgb(48, 48, 48); stroke:rgb(48, 48, 48); stroke-width:3px; "/><g id="circle_source_copy" data-name="circle source copy"><g id="Layer_22_copy" data-name="Layer 22 copy"><g id="Layer_9_copy_5" data-name="Layer 9 copy 5"><polygon points="500.36 182 386.68 295.68 351.32 260.32 404.64 207 210 207 210 157 404.64 157 352.32 104.68 387.68 69.32 500.36 182" style="stroke:rgb(48, 48, 48); fill:rgb(48, 48, 48); "/></g></g></g></g></svg>
                </g>
                
                <text transform="matrix(1.07993 0 0 1.07993 0 67)" class="title label" style="fill:rgb(255, 255, 255); font-size:13px; text-anchor:middle; font-family:sans-serif; ">optimal_model_parameters</text>
                
                
            <g class="port input-port" transform="matrix(1, 0, 0, 1, -37, 4.531193156845207e-15)" data-connection-id="in/optimal_model_parameters/optimal_model_parameters" data-port-id="optimal_model_parameters">
                <g class="io-port">
                    <circle cx="0" cy="0" r="7" class="port-handle" style="fill:rgb(195, 195, 195); stroke:none; stroke-width:1px; "/>
                </g>
                
            </g>
            
        
                
            </g><g tabindex="-1" class="node step  " data-connection-id="cylinder_simulation" transform="translate(789.838 342.108)" data-id="cylinder_simulation">
               
                <g class="core" transform="matrix(1, 0, 0, 1, 0, 0)">
                    <circle cx="0" cy="0" r="65" class="outer" style="fill:rgb(48, 48, 48); stroke:rgb(154, 154, 154); stroke-width:2px; "/>
                    <circle cx="0" cy="0" r="48.75" class="inner" style="fill:rgb(17, 167, 167); stroke:none; stroke-width:1px; "/>
                    
                    <svg class="node-icon" xmlns="http://www.w3.org/2000/svg" viewBox="0 0 398.39 397.78" x="-10" y="-8" width="20" height="15"><title>tool2</title><polygon points="38.77 397.57 0 366 136.15 198.78 0 31.57 38.77 0 200.63 198.78 38.77 397.57" style="stroke:rgb(48, 48, 48); fill:rgb(48, 48, 48); "/><rect x="198.39" y="347.78" width="200" height="50" style="fill:rgb(48, 48, 48); stroke:rgb(48, 48, 48); stroke-width:3px; "/></svg>
                </g>
                
                <text transform="matrix(1.07993 0 0 1.07993 0 95)" class="title label" style="fill:rgb(255, 255, 255); font-size:13px; text-anchor:middle; font-family:sans-serif; ">cylinder_simulation</text>
                
                
            <g class="port input-port" transform="matrix(0.9999999999999999, 0, 0, 0.9999999999999999, -44.605702264388945, -47.279290661987375)" data-connection-id="in/cylinder_simulation/youngs_modulus" data-port-id="youngs_modulus">
                <g class="io-port">
                    <circle cx="0" cy="0" r="7" class="port-handle" style="fill:rgb(195, 195, 195); stroke:none; stroke-width:1px; "/>
                </g>
                
            </g>
            
        
            <g class="port input-port" transform="matrix(1, 0, 0, 1, -59.68404923267005, -25.74517949427071)" data-connection-id="in/cylinder_simulation/radius" data-port-id="radius">
                <g class="io-port">
                    <circle cx="0" cy="0" r="7" class="port-handle" style="fill:rgb(195, 195, 195); stroke:none; stroke-width:1px; "/>
                </g>
                
            </g>
            
        
            <g class="port input-port" transform="matrix(1, 0, 0, 1, -65, 7.960204194457796e-15)" data-connection-id="in/cylinder_simulation/poissions_ratio" data-port-id="poissions_ratio">
                <g class="io-port">
                    <circle cx="0" cy="0" r="7" class="port-handle" style="fill:rgb(195, 195, 195); stroke:none; stroke-width:1px; "/>
                </g>
                
            </g>
            
        
            <g class="port input-port" transform="matrix(0.9999999999999999, 0, 0, 0.9999999999999999, -59.68404923267004, 25.745179494270726)" data-connection-id="in/cylinder_simulation/height" data-port-id="height">
                <g class="io-port">
                    <circle cx="0" cy="0" r="7" class="port-handle" style="fill:rgb(195, 195, 195); stroke:none; stroke-width:1px; "/>
                </g>
                
            </g>
            
        
            <g class="port input-port" transform="matrix(1, 0, 0, 1, -44.60570226438894, 47.27929066198739)" data-connection-id="in/cylinder_simulation/displacement" data-port-id="displacement">
                <g class="io-port">
                    <circle cx="0" cy="0" r="7" class="port-handle" style="fill:rgb(195, 195, 195); stroke:none; stroke-width:1px; "/>
                </g>
                
            </g>
            
        
                
            <g class="port output-port" transform="matrix(1, 0, 0, 1, 65, 0)" data-connection-id="out/cylinder_simulation/force" data-port-id="force">
                <g class="io-port">
                    <circle cx="0" cy="0" r="7" class="port-handle" style="fill:rgb(195, 195, 195); stroke:none; stroke-width:1px; "/>
                </g>
                
            </g>
            
        
            </g><g tabindex="-1" class="node step  " data-connection-id="forward_model" transform="translate(630.189 172.967)" data-id="forward_model">
               
                <g class="core" transform="matrix(1, 0, 0, 1, 0, 0)">
                    <circle cx="0" cy="0" r="58" class="outer" style="fill:rgb(48, 48, 48); stroke:rgb(154, 154, 154); stroke-width:2px; "/>
                    <circle cx="0" cy="0" r="43.5" class="inner" style="fill:rgb(17, 167, 167); stroke:none; stroke-width:1px; "/>
                    
                    <svg class="node-icon" xmlns="http://www.w3.org/2000/svg" viewBox="0 0 398.39 397.78" x="-10" y="-8" width="20" height="15"><title>tool2</title><polygon points="38.77 397.57 0 366 136.15 198.78 0 31.57 38.77 0 200.63 198.78 38.77 397.57" style="stroke:rgb(48, 48, 48); fill:rgb(48, 48, 48); "/><rect x="198.39" y="347.78" width="200" height="50" style="fill:rgb(48, 48, 48); stroke:rgb(48, 48, 48); stroke-width:3px; "/></svg>
                </g>
                
                <text transform="matrix(1.07993 0 0 1.07993 0 88)" class="title label" style="fill:rgb(255, 255, 255); font-size:13px; text-anchor:middle; font-family:sans-serif; ">forward_model</text>
                
                
            <g class="port input-port" transform="matrix(1, 0, 0, 1, -43.10239987768887, -38.80957516881378)" data-connection-id="in/forward_model/simulation_module" data-port-id="simulation_module">
                <g class="io-port">
                    <circle cx="0" cy="0" r="7" class="port-handle" style="fill:rgb(195, 195, 195); stroke:none; stroke-width:1px; "/>
                </g>
                
            </g>
            
        
            <g class="port input-port" transform="matrix(0.9999999999999999, 0, 0, 0.9999999999999999, -56.2771521240078, -14.031469944780715)" data-connection-id="in/forward_model/model_parameters" data-port-id="model_parameters">
                <g class="io-port">
                    <circle cx="0" cy="0" r="7" class="port-handle" style="fill:rgb(195, 195, 195); stroke:none; stroke-width:1px; "/>
                </g>
                
            </g>
            
        
            <g class="port input-port" transform="matrix(1, 0, 0, 1, -56.2771521240078, 14.031469944780728)" data-connection-id="in/forward_model/force" data-port-id="force">
                <g class="io-port">
                    <circle cx="0" cy="0" r="7" class="port-handle" style="fill:rgb(195, 195, 195); stroke:none; stroke-width:1px; "/>
                </g>
                
            </g>
            
        
            <g class="port input-port" transform="matrix(0.9999999999999999, 0, 0, 0.9999999999999999, -43.10239987768885, 38.80957516881379)" data-connection-id="in/forward_model/displ_list" data-port-id="displ_list">
                <g class="io-port">
                    <circle cx="0" cy="0" r="7" class="port-handle" style="fill:rgb(195, 195, 195); stroke:none; stroke-width:1px; "/>
                </g>
                
            </g>
            
        
                
            <g class="port output-port" transform="matrix(0.9999999999999999, 0, 0, 0.9999999999999999, 47.51081856876152, -33.26743330836067)" data-connection-id="out/forward_model/sim_force_list" data-port-id="sim_force_list">
                <g class="io-port">
                    <circle cx="0" cy="0" r="7" class="port-handle" style="fill:rgb(195, 195, 195); stroke:none; stroke-width:1px; "/>
                </g>
                
            </g>
            
        
            <g class="port output-port" transform="matrix(1, 0, 0, 1, 58, 0)" data-connection-id="out/forward_model/model_parameters" data-port-id="model_parameters">
                <g class="io-port">
                    <circle cx="0" cy="0" r="7" class="port-handle" style="fill:rgb(195, 195, 195); stroke:none; stroke-width:1px; "/>
                </g>
                
            </g>
            
        
            <g class="port output-port" transform="matrix(0.9999999999999999, 0, 0, 0.9999999999999999, 47.51081856876152, 33.26743330836067)" data-connection-id="out/forward_model/displacement" data-port-id="displacement">
                <g class="io-port">
                    <circle cx="0" cy="0" r="7" class="port-handle" style="fill:rgb(195, 195, 195); stroke:none; stroke-width:1px; "/>
                </g>
                
            </g>
            
        
            </g><g tabindex="-1" class="node input type-undefined " data-connection-id="out/mix/mix" transform="translate(13.9184 156.729)" data-id="mix">
               
                <g class="core" transform="matrix(1, 0, 0, 1, 0, 0)">
                    <circle cx="0" cy="0" r="37" class="outer" style="fill:rgb(48, 48, 48); stroke:rgb(154, 154, 154); stroke-width:2px; "/>
                    <circle cx="0" cy="0" r="27.75" class="inner" style="fill:rgb(195, 195, 195); stroke:none; stroke-width:1px; "/>
                    
                    <svg class="node-icon" xmlns="http://www.w3.org/2000/svg" viewBox="0 0 499 365" x="-11" y="-10" width="20" height="20"><title>type_input</title><g id="input"><path d="M316.5,68a181.72,181.72,0,0,0-114.12,40.09L238,143.72a132.5,132.5,0,1,1,1.16,214.39L203.48,393.8A182.5,182.5,0,1,0,316.5,68Z" transform="translate(0 -68)" style="fill:rgb(48, 48, 48); stroke:rgb(48, 48, 48); stroke-width:3px; "/><g id="Layer_22" data-name="Layer 22"><g id="Layer_9_copy_4" data-name="Layer 9 copy 4"><polygon points="290.36 182 176.68 295.68 141.32 260.32 194.64 207 0 207 0 157 194.64 157 142.32 104.68 177.68 69.32 290.36 182" style="stroke:rgb(48, 48, 48); fill:rgb(48, 48, 48); "/></g></g></g></svg>
                </g>
                
                <text transform="matrix(1.07993 0 0 1.07993 0 67)" class="title label" style="fill:rgb(255, 255, 255); font-size:13px; text-anchor:middle; font-family:sans-serif; ">mix</text>
                
                
                
            <g class="port output-port" transform="matrix(1, 0, 0, 1, 37, 0)" data-connection-id="out/mix/mix" data-port-id="mix">
                <g class="io-port">
                    <circle cx="0" cy="0" r="7" class="port-handle" style="fill:rgb(195, 195, 195); stroke:none; stroke-width:1px; "/>
                </g>
                
            </g>
            
        
            </g><g tabindex="-1" class="node input type-undefined " data-connection-id="out/forward_model_definition/forward_model_definition" transform="translate(10.4388 -3.25886)" data-id="forward_model_definition">
               
                <g class="core" transform="matrix(1, 0, 0, 1, 0, 0)">
                    <circle cx="0" cy="0" r="37" class="outer" style="fill:rgb(48, 48, 48); stroke:rgb(154, 154, 154); stroke-width:2px; "/>
                    <circle cx="0" cy="0" r="27.75" class="inner" style="fill:rgb(195, 195, 195); stroke:none; stroke-width:1px; "/>
                    
                    <svg class="node-icon" xmlns="http://www.w3.org/2000/svg" viewBox="0 0 499 365" x="-11" y="-10" width="20" height="20"><title>type_input</title><g id="input"><path d="M316.5,68a181.72,181.72,0,0,0-114.12,40.09L238,143.72a132.5,132.5,0,1,1,1.16,214.39L203.48,393.8A182.5,182.5,0,1,0,316.5,68Z" transform="translate(0 -68)" style="fill:rgb(48, 48, 48); stroke:rgb(48, 48, 48); stroke-width:3px; "/><g id="Layer_22" data-name="Layer 22"><g id="Layer_9_copy_4" data-name="Layer 9 copy 4"><polygon points="290.36 182 176.68 295.68 141.32 260.32 194.64 207 0 207 0 157 194.64 157 142.32 104.68 177.68 69.32 290.36 182" style="stroke:rgb(48, 48, 48); fill:rgb(48, 48, 48); "/></g></g></g></svg>
                </g>
                
                <text transform="matrix(1.07993 0 0 1.07993 0 67)" class="title label" style="fill:rgb(255, 255, 255); font-size:13px; text-anchor:middle; font-family:sans-serif; ">forward_model_definition</text>
                
                
                
            <g class="port output-port" transform="matrix(1, 0, 0, 1, 37, 0)" data-connection-id="out/forward_model_definition/forward_model_definition" data-port-id="forward_model_definition">
                <g class="io-port">
                    <circle cx="0" cy="0" r="7" class="port-handle" style="fill:rgb(195, 195, 195); stroke:none; stroke-width:1px; "/>
                </g>
                
            </g>
            
        
            </g><g tabindex="-1" class="node input type-undefined " data-connection-id="out/probeye_module/probeye_module" transform="translate(13.9184 -151.869)" data-id="probeye_module">
               
                <g class="core" transform="matrix(1, 0, 0, 1, 0, 0)">
                    <circle cx="0" cy="0" r="37" class="outer" style="fill:rgb(48, 48, 48); stroke:rgb(154, 154, 154); stroke-width:2px; "/>
                    <circle cx="0" cy="0" r="27.75" class="inner" style="fill:rgb(195, 195, 195); stroke:none; stroke-width:1px; "/>
                    
                    <svg class="node-icon" xmlns="http://www.w3.org/2000/svg" viewBox="0 0 499 365" x="-11" y="-10" width="20" height="20"><title>type_input</title><g id="input"><path d="M316.5,68a181.72,181.72,0,0,0-114.12,40.09L238,143.72a132.5,132.5,0,1,1,1.16,214.39L203.48,393.8A182.5,182.5,0,1,0,316.5,68Z" transform="translate(0 -68)" style="fill:rgb(48, 48, 48); stroke:rgb(48, 48, 48); stroke-width:3px; "/><g id="Layer_22" data-name="Layer 22"><g id="Layer_9_copy_4" data-name="Layer 9 copy 4"><polygon points="290.36 182 176.68 295.68 141.32 260.32 194.64 207 0 207 0 157 194.64 157 142.32 104.68 177.68 69.32 290.36 182" style="stroke:rgb(48, 48, 48); fill:rgb(48, 48, 48); "/></g></g></g></svg>
                </g>
                
                <text transform="matrix(1.07993 0 0 1.07993 0 67)" class="title label" style="fill:rgb(255, 255, 255); font-size:13px; text-anchor:middle; font-family:sans-serif; ">probeye_module</text>
                
                
                
            <g class="port output-port" transform="matrix(1, 0, 0, 1, 37, 0)" data-connection-id="out/probeye_module/probeye_module" data-port-id="probeye_module">
                <g class="io-port">
                    <circle cx="0" cy="0" r="7" class="port-handle" style="fill:rgb(195, 195, 195); stroke:none; stroke-width:1px; "/>
                </g>
                
            </g>
            
        
            </g></g>
        </svg>